<mxfile host="app.diagrams.net" modified="2021-09-24T23:40:07.196Z" agent="5.0 (X11)" etag="kswo5cuVU_JA1XG48WXb" version="15.3.2" type="github">
  <diagram id="C5RBs43oDa-KdzZeNtuy" name="Page-1">
    <mxGraphModel dx="868" dy="480" grid="1" gridSize="10" guides="1" tooltips="1" connect="1" arrows="1" fold="1" page="1" pageScale="1" pageWidth="827" pageHeight="1169" math="0" shadow="0">
      <root>
        <mxCell id="WIyWlLk6GJQsqaUBKTNV-0" />
        <mxCell id="WIyWlLk6GJQsqaUBKTNV-1" parent="WIyWlLk6GJQsqaUBKTNV-0" />
        <mxCell id="t1GJuXnAVORVwclhgLZh-0" value="&lt;div&gt;Internet&lt;/div&gt;" style="rounded=1;whiteSpace=wrap;html=1;align=center;verticalAlign=top;" vertex="1" parent="WIyWlLk6GJQsqaUBKTNV-1">
          <mxGeometry x="10" y="80" width="384" height="370" as="geometry" />
        </mxCell>
        <mxCell id="t1GJuXnAVORVwclhgLZh-24" style="edgeStyle=orthogonalEdgeStyle;rounded=0;orthogonalLoop=1;jettySize=auto;html=1;exitX=0.5;exitY=1;exitDx=0;exitDy=0;" edge="1" parent="WIyWlLk6GJQsqaUBKTNV-1" source="t1GJuXnAVORVwclhgLZh-1" target="WIyWlLk6GJQsqaUBKTNV-3">
          <mxGeometry relative="1" as="geometry" />
        </mxCell>
        <mxCell id="t1GJuXnAVORVwclhgLZh-25" value="Domain name" style="edgeLabel;html=1;align=center;verticalAlign=middle;resizable=0;points=[];" vertex="1" connectable="0" parent="t1GJuXnAVORVwclhgLZh-24">
          <mxGeometry x="-0.3182" y="2" relative="1" as="geometry">
            <mxPoint as="offset" />
          </mxGeometry>
        </mxCell>
        <mxCell id="t1GJuXnAVORVwclhgLZh-1" value="Servers" style="rounded=1;whiteSpace=wrap;html=1;align=center;verticalAlign=top;" vertex="1" parent="WIyWlLk6GJQsqaUBKTNV-1">
          <mxGeometry x="27" y="100" width="350" height="70" as="geometry" />
        </mxCell>
        <mxCell id="t1GJuXnAVORVwclhgLZh-26" style="edgeStyle=orthogonalEdgeStyle;rounded=0;orthogonalLoop=1;jettySize=auto;html=1;exitX=1;exitY=0.5;exitDx=0;exitDy=0;entryX=0.033;entryY=0.42;entryDx=0;entryDy=0;entryPerimeter=0;" edge="1" parent="WIyWlLk6GJQsqaUBKTNV-1" source="WIyWlLk6GJQsqaUBKTNV-3" target="t1GJuXnAVORVwclhgLZh-5">
          <mxGeometry relative="1" as="geometry" />
        </mxCell>
        <mxCell id="t1GJuXnAVORVwclhgLZh-27" value="Public IPs" style="edgeLabel;html=1;align=center;verticalAlign=middle;resizable=0;points=[];" vertex="1" connectable="0" parent="t1GJuXnAVORVwclhgLZh-26">
          <mxGeometry x="0.1039" y="2" relative="1" as="geometry">
            <mxPoint as="offset" />
          </mxGeometry>
        </mxCell>
        <mxCell id="WIyWlLk6GJQsqaUBKTNV-3" value="&lt;div&gt;DNS Provider&lt;/div&gt;" style="rounded=1;whiteSpace=wrap;html=1;fontSize=12;glass=0;strokeWidth=1;shadow=0;" parent="WIyWlLk6GJQsqaUBKTNV-1" vertex="1">
          <mxGeometry x="110" y="270" width="120" height="40" as="geometry" />
        </mxCell>
        <mxCell id="t1GJuXnAVORVwclhgLZh-3" value="Internal Servers (Cluster1)" style="rounded=1;whiteSpace=wrap;html=1;align=center;verticalAlign=top;" vertex="1" parent="WIyWlLk6GJQsqaUBKTNV-1">
          <mxGeometry x="470" y="65" width="290" height="320" as="geometry" />
        </mxCell>
        <mxCell id="t1GJuXnAVORVwclhgLZh-17" style="edgeStyle=orthogonalEdgeStyle;shape=link;rounded=0;orthogonalLoop=1;jettySize=auto;html=1;exitX=1;exitY=0.75;exitDx=0;exitDy=0;entryX=0;entryY=0.5;entryDx=0;entryDy=0;" edge="1" parent="WIyWlLk6GJQsqaUBKTNV-1" source="t1GJuXnAVORVwclhgLZh-5" target="t1GJuXnAVORVwclhgLZh-9">
          <mxGeometry relative="1" as="geometry" />
        </mxCell>
        <mxCell id="t1GJuXnAVORVwclhgLZh-18" value="&lt;div&gt;Internal IPs&lt;/div&gt;" style="edgeLabel;html=1;align=center;verticalAlign=middle;resizable=0;points=[];" vertex="1" connectable="0" parent="t1GJuXnAVORVwclhgLZh-17">
          <mxGeometry x="0.3872" y="-2" relative="1" as="geometry">
            <mxPoint x="1" as="offset" />
          </mxGeometry>
        </mxCell>
        <mxCell id="t1GJuXnAVORVwclhgLZh-19" style="edgeStyle=orthogonalEdgeStyle;shape=link;rounded=0;orthogonalLoop=1;jettySize=auto;html=1;exitX=1;exitY=0.25;exitDx=0;exitDy=0;" edge="1" parent="WIyWlLk6GJQsqaUBKTNV-1" source="t1GJuXnAVORVwclhgLZh-5" target="t1GJuXnAVORVwclhgLZh-8">
          <mxGeometry relative="1" as="geometry" />
        </mxCell>
        <mxCell id="t1GJuXnAVORVwclhgLZh-20" value="Internal IP" style="edgeLabel;html=1;align=center;verticalAlign=middle;resizable=0;points=[];" vertex="1" connectable="0" parent="t1GJuXnAVORVwclhgLZh-19">
          <mxGeometry x="0.2356" y="-2" relative="1" as="geometry">
            <mxPoint as="offset" />
          </mxGeometry>
        </mxCell>
        <mxCell id="t1GJuXnAVORVwclhgLZh-5" value="&lt;div&gt;Load&lt;/div&gt;&lt;div&gt;Balancer&lt;br&gt;&lt;/div&gt;" style="rounded=0;whiteSpace=wrap;html=1;align=center;verticalAlign=middle;" vertex="1" parent="WIyWlLk6GJQsqaUBKTNV-1">
          <mxGeometry x="480" y="100" width="60" height="250" as="geometry" />
        </mxCell>
        <mxCell id="t1GJuXnAVORVwclhgLZh-21" style="edgeStyle=orthogonalEdgeStyle;rounded=0;orthogonalLoop=1;jettySize=auto;html=1;exitX=0.25;exitY=0.1;exitDx=0;exitDy=0;exitPerimeter=0;" edge="1" parent="WIyWlLk6GJQsqaUBKTNV-1" source="t1GJuXnAVORVwclhgLZh-6" target="WIyWlLk6GJQsqaUBKTNV-3">
          <mxGeometry relative="1" as="geometry" />
        </mxCell>
        <mxCell id="t1GJuXnAVORVwclhgLZh-22" value="Domain name" style="edgeLabel;html=1;align=center;verticalAlign=middle;resizable=0;points=[];" vertex="1" connectable="0" parent="t1GJuXnAVORVwclhgLZh-21">
          <mxGeometry x="-0.1124" y="3" relative="1" as="geometry">
            <mxPoint x="1" as="offset" />
          </mxGeometry>
        </mxCell>
        <mxCell id="t1GJuXnAVORVwclhgLZh-6" value="Client" style="shape=umlActor;verticalLabelPosition=bottom;verticalAlign=top;html=1;outlineConnect=0;" vertex="1" parent="WIyWlLk6GJQsqaUBKTNV-1">
          <mxGeometry x="170" y="470" width="30" height="60" as="geometry" />
        </mxCell>
        <mxCell id="t1GJuXnAVORVwclhgLZh-8" value="&lt;div&gt;Server1:&lt;/div&gt;&lt;div&gt;UserService and API Gateway&lt;br&gt;&lt;/div&gt;" style="rounded=1;whiteSpace=wrap;html=1;align=center;verticalAlign=middle;" vertex="1" parent="WIyWlLk6GJQsqaUBKTNV-1">
          <mxGeometry x="610" y="100" width="140" height="140" as="geometry" />
        </mxCell>
        <mxCell id="t1GJuXnAVORVwclhgLZh-9" value="Other Servers" style="rounded=1;whiteSpace=wrap;html=1;align=center;verticalAlign=middle;" vertex="1" parent="WIyWlLk6GJQsqaUBKTNV-1">
          <mxGeometry x="625" y="290" width="120" height="60" as="geometry" />
        </mxCell>
      </root>
    </mxGraphModel>
  </diagram>
</mxfile>
